# AST/ASF file generated using VICON BodyLanguage
# -----------------------------------------------
:version 1.10
:name VICON
:units
  mass 1.0
  length 0.45
  angle deg
:documentation
   .ast/.asf automatically generated from VICON data using
   VICON BodyBuilder and BodyLanguage model FoxedUp or BRILLIANT.MOD
:root
   order TX TY TZ RX RY RZ
   axis XYZ
   position 0 0 0  
   orientation 0 0 0 
:bonedata
  begin
     id 1 
     name lhipjoint
     direction 0.624716 -0.669793 0.401383 
     length 2.38238 
     axis 0 0 0  XYZ
  end
  begin
     id 2 
     name lfemur
     direction 0.34202 -0.939693 0  
     length 6.4574  
     axis 0 0 20  XYZ
    dof rx ry rz
    limits (-160.0 20.0)
           (-70.0 70.0)
           (-60.0 70.0)
  end
  begin
     id 3 
     name ltibia
     direction 0.34202 -0.939693 0   
     length 7.68739   
     axis 0 0 20   XYZ
    dof rx
    limits (-10.0 170.0)
  end
  begin
     id 4 
     name lfoot
     direction 0.0681309 -0.187188 0.979959   
     length 2.46615   
     axis -90 7.62852e-016 20   XYZ
    dof rx rz
    limits (-45.0 90.0)
           (-70.0 20.0)
  end
  begin
     id 5 
     name ltoes
     direction 1.53566e-011 -4.21819e-011 1   
     length 1.2376   
     axis -90 7.62852e-016 20   XYZ
    dof rx
    limits (-90.0 20.0)
  end
  begin
     id 6 
     name rhipjoint
     direction -0.644473 -0.655875 0.393043   
     length 2.43293  
     axis 0 0 0  XYZ 
  end
  begin
     id 7 
     name rfemur
     direction -0.34202 -0.939693 0   
     length 6.7025   
     axis 0 0 -20   XYZ
    dof rx ry rz
    limits (-160.0 20.0)
           (-70.0 70.0)
           (-70.0 60.0)
  end
  begin
     id 8 
     name rtibia
     direction -0.34202 -0.939693 0   
     length 7.80547   
     axis 0 0 -20   XYZ
    dof rx
    limits (-10.0 170.0)
 end
 begin
     id 9 
     name rfoot
     direction -0.0756734 -0.207911 0.975216   
     length 2.40315  
     axis -90 -7.62852e-016 -20   XYZ
    dof rx rz
    limits (-45.0 90.0)
           (-20.0 70.0)
  end
  begin
     id 10 
     name rtoes
     direction -1.5353e-011 -4.21879e-011 1   
     length 1.20477   
     axis -90 -7.62852e-016 -20   XYZ
    dof rx
    limits (-90.0 20.0)
  end
  begin
     id 11 
     name lowerback
     direction 0.0160353 0.987463 -0.157037   
     length 2.18572   
     axis 0 0 0   XYZ
    dof rx ry rz
    limits (-20.0 45.0)
           (-30.0 30.0)
           (-30.0 30.0)
  end
  begin
     id 12 
     name upperback
     direction -0.00499661 0.999756 0.0215076   
     length 2.18016   
     axis 0 0 0   XYZ
    dof rx ry rz
    limits (-20.0 45.0)
           (-30.0 30.0)
           (-30.0 30.0)
  end
  begin
     id 13 
     name thorax
     direction -0.00921346 0.995333 0.0960619   
     length 2.24923   
     axis 0 0 0   XYZ
    dof rx ry rz
    limits (-20.0 45.0)
           (-30.0 30.0)
           (-30.0 30.0)
  end
  begin
     id 14 
     name lowerneck
     direction 0.0274184 0.991181 0.12965   
     length 1.70911   
     axis 0 0 0   XYZ
    dof rx ry rz
    limits (-20.0 45.0)
           (-30.0 30.0)
           (-30.0 30.0)
  end
  begin
     id 15 
     name upperneck
     direction 0.0015627 0.999959 -0.00893559   
     length 1.69312   
     axis 0 0 0   XYZ
    dof rx ry rz
    limits (-20.0 45.0)
           (-30.0 30.0)
           (-30.0 30.0)
  end
  begin
     id 16
     name head
     direction -0.00230242 0.999856 -0.0168327  
     length 1.80241  
     axis 0 0 0   XYZ
    dof rx ry rz
    limits (-20.0 45.0)
           (-30.0 30.0)
           (-30.0 30.0)
  end
  begin
     id 17 
     name lclavicle
     direction 0.955523 0.290741 -0.0494489  
     length 3.84275  
     axis 0 0 0   XYZ
    dof ry rz
    limits (-20.0 10.0)
           (0.0 20.0)
  end
  begin
     id 18 
     name lhumerus
     direction 1 -4.48967e-011 -3.18382e-028   
     length 5.17714   
     axis 180 -30 -90   XYZ
    dof rx ry rz
    limits (-60.0 90.0)
           (-90.0 90.0)
           (-90.0 90.0)
  end
  begin
     id 19
     name lradius
     direction 1 -4.48968e-011 -2.22911e-027   
     length 3.43679   
     axis 180 -30 -90   XYZ
    dof rx
    limits (-10.0 170.0)
  end
  begin
     id 20
     name lwrist
     direction 1 -4.48951e-011 -6.32245e-027   
     length 1.7184   
     axis 3.57107e-015 90 90   XYZ
    dof ry
    limits (-180.0 0.0)
 end
  begin
     id 21 
     name lhand
     direction 1 -4.48924e-011 -1.26431e-026   
     length 0.573117   
     axis 8.06912e-015 90 90   XYZ
    dof rx rz
    limits (-90.0 90.0)
           (-45.0 45.0)
  end
  begin
     id 22 
     name lfingers
     direction 1 -4.49001e-011 -2.52965e-026   
     length 0.462062   
     axis 1.61381e-014 90 90   XYZ
    dof rx
    limits (0.0 90.0)
  end
  begin
     id 23
     name lthumb
     direction 0.707107 -6.35008e-011 0.707107   
     length 0.663431   
     axis -90 45 -1.62303e-014   XYZ
    dof rx rz
    limits (-45.0 45.0)
           (-45.0 45.0)
  end
  begin
     id 24 
     name rclavicle
     direction -0.963917 0.256881 -0.0698287   
     length 3.73057  
     axis 0 0 0   XYZ 
    dof ry rz
    limits (-10.0 20.0)
           (-20.0 0.0)
  end
  begin
     id 25 
     name rhumerus
     direction -1 -4.48962e-011 -2.73982e-027  
     length 5.23908   
     axis 180 30 90   XYZ
    dof rx ry rz
    limits (-90.0 60.0)
           (-90.0 90.0)
           (-90.0 90.0)
  end
  begin
     id 26 
     name rradius
     direction -1 -4.48968e-011 -4.33218e-027   
     length 3.46485   
     axis 180 30 90   XYZ
    dof rx
    limits (-10.0 170.0)
  end
  begin
     id 27 
     name rwrist
     direction -1 -4.48989e-011 -6.32372e-027   
     length 1.73243   
     axis 3.57107e-015 -90 -90   XYZ
    dof ry
    limits (-180.0 0.0)
  end
  begin
     id 28
     name rhand
     direction -1 -4.48948e-011 -1.26448e-026   
     length 0.608752   
     axis 8.06912e-015 -90 -90   XYZ
    dof rx rz
    limits (-90.0 90.0)
           (-45.0 45.0)
  end
  begin
     id 29
     name rfingers
     direction -1 -4.48962e-011 -2.52913e-026   
     length 0.490792   
     axis 1.61381e-014 -90 -90   XYZ
    dof rx
    limits (0.0 90.0)
  end
  begin
     id 30
     name rthumb
     direction -0.707107 -6.34878e-011 0.707107   
     length 0.704682   
     axis -90 -45 1.62303e-014   XYZ
    dof rx rz
    limits (-45.0 45.0)
           (-45.0 45.0)
  end
:hierarchy
  begin
    root lhipjoint rhipjoint lowerback
    lhipjoint lfemur
    lfemur ltibia
    ltibia lfoot
    lfoot ltoes
    rhipjoint rfemur
    rfemur rtibia
    rtibia rfoot
    rfoot rtoes
    lowerback upperback
    upperback thorax
    thorax lowerneck lclavicle rclavicle
    lowerneck upperneck
    upperneck head
    lclavicle lhumerus
    lhumerus lradius
    lradius lwrist
    lwrist lhand lthumb
    lhand lfingers
    rclavicle rhumerus
    rhumerus rradius
    rradius rwrist
    rwrist rhand rthumb
    rhand rfingers
  end

#!OML:ASF G:\JayActor3\Patient Classification 1\Patient 1\Session 6\male.ASF
:FULLY-SPECIFIED
:DEGREES
169
root -0.974631 16.5883 -3.41353 121.312 -86.2446 -118.738
lowerback -0.975739 -0.798248 2.86852
upperback 4.94304 -1.28881 0.397334
thorax 5.61522 -0.554994 -1.27191
lowerneck -6.77183 1.49815 2.85314
upperneck 23.9706 1.54833 -2.40832
head 8.60305 0.500258 -1.19032
rclavicle -2.89232e-014 4.77083e-015
rhumerus -26.6854 -9.36747 -82.8352
rradius 32.0549
rwrist 2.53131
rhand -17.5214 -7.32751
rfingers 7.12502
rthumb 8.73222 -37.1269
lclavicle -2.89232e-014 4.77083e-015
lhumerus -21.6356 8.23442 85.3634
lradius 26.2896
lwrist 26.3444
lhand -15.1483 5.10613
lfingers 7.12502
lthumb 11.0218 34.7968
rfemur -9.71964 1.92192 17.761
rtibia 30.0685
rfoot -24.8558 -19.4239
rtoes 1.81266
lfemur -1.66272 3.21083 -10.5588
ltibia 15.8887
lfoot -14.5295 16.2298
ltoes -5.82142
170
root -0.975081 16.5881 -3.41415 121.466 -86.2371 -118.907
lowerback -0.97977 -0.797169 2.86724
upperback 4.94871 -1.28791 0.399742
thorax 5.62365 -0.554577 -1.26878
lowerneck -6.76619 1.49814 2.85786
upperneck 23.9517 1.5506 -2.41787
head 8.5957 0.501174 -1.19396
rclavicle 3.47873e-015 3.37934e-015
rhumerus -26.6921 -9.41099 -82.8077
rradius 31.9864
rwrist 2.54165
rhand -17.5604 -7.28927
rfingers 7.12502
rthumb 8.6946 -37.0902
lclavicle 3.47873e-015 3.37934e-015
lhumerus -21.6534 8.33403 85.3202
lradius 26.1763
lwrist 26.2716
lhand -15.1308 5.08282
lfingers 7.12502
lthumb 11.0386 34.7726
rfemur -9.70617 1.92456 17.7647
rtibia 30.0722
rfoot -24.8496 -19.417
rtoes 1.81583
lfemur -1.6456 3.21186 -10.5564
ltibia 15.8965
lfoot -14.5253 16.2456
ltoes -5.84102
171
root -0.975364 16.5879 -3.41483 121.649 -86.2287 -119.104
lowerback -0.983343 -0.795501 2.86385
upperback 4.95476 -1.28617 0.402614
thorax 5.63228 -0.553855 -1.26395
lowerneck -6.76234 1.49787 2.86173
upperneck 23.9359 1.5522 -2.42606
head 8.58969 0.501775 -1.19709
rclavicle 4.52235e-015 5.36719e-015
rhumerus -26.6984 -9.45555 -82.7792
rradius 31.9185
rwrist 2.5522
rhand -17.5913 -7.26424
rfingers 7.12502
rthumb 8.66471 -37.0664
lclavicle 4.52235e-015 5.36719e-015
lhumerus -21.6724 8.42858 85.2775
lradius 26.0621
lwrist 26.2191
lhand -15.1248 5.04352
lfingers 7.12502
lthumb 11.0443 34.733
rfemur -9.696 1.92967 17.7688
rtibia 30.0776
rfoot -24.8396 -19.4151
rtoes 1.8113
lfemur -1.62997 3.21259 -10.5543
ltibia 15.904
lfoot -14.5175 16.2656
ltoes -5.87126
172
root -0.975561 16.5879 -3.41556 121.832 -86.2197 -119.3
lowerback -0.982471 -0.793408 2.8614
upperback 4.95751 -1.28356 0.405026
thorax 5.6349 -0.552729 -1.25995
lowerneck -6.75877 1.49731 2.86634
upperneck 23.9263 1.55263 -2.4329
head 8.58586 0.501879 -1.20007
rclavicle -4.07509e-015 4.37326e-015
rhumerus -26.7089 -9.50457 -82.7492
rradius 31.8485
rwrist 2.56843
rhand -17.6171 -7.24603
rfingers 7.12502
rthumb 8.63985 -37.0492
lclavicle -4.07509e-015 4.37326e-015
lhumerus -21.6971 8.52227 85.2311
lradius 25.9495
lwrist 26.166
lhand -15.1175 5.02337
lfingers 7.12502
lthumb 11.0514 34.7124
rfemur -9.68877 1.93753 17.7737
rtibia 30.0842
rfoot -24.8308 -19.4137
rtoes 1.81156
lfemur -1.61552 3.2119 -10.5516
ltibia 15.9111
lfoot -14.5122 16.2848
ltoes -5.88728
173
root -0.975611 16.588 -3.41629 122.015 -86.2111 -119.495
lowerback -0.976586 -0.790814 2.86005
upperback 4.95685 -1.27993 0.406633
thorax 5.63103 -0.551118 -1.2572
lowerneck -6.75761 1.49642 2.86799
upperneck 23.9247 1.55142 -2.43405
head 8.58506 0.501349 -1.20084
rclavicle 5.56597e-015 9.14409e-015
rhumerus -26.725 -9.5618 -82.7168
rradius 31.7808
rwrist 2.599
rhand -17.6277 -7.24557
rfingers 7.12502
rthumb 8.62965 -37.0492
lclavicle 5.56597e-015 9.14409e-015
lhumerus -21.7257 8.61309 85.1831
lradius 25.833
lwrist 26.1176
lhand -15.1184 4.99681
lfingers 7.12502
lthumb 11.0505 34.6859
rfemur -9.6842 1.944 17.778
rtibia 30.0919
rfoot -24.8208 -19.4109
rtoes 1.81645
lfemur -1.60318 3.21237 -10.5492
ltibia 15.9171
lfoot -14.5041 16.304
ltoes -5.90544
